<?xml version="1.0" encoding="utf-8"?>
<!-- Generator: Adobe Illustrator 21.1.0, SVG Export Plug-In . SVG Version: 6.00 Build 0)  -->
<svg version="1.1" id="Layer_1" xmlns="http://www.w3.org/2000/svg" xmlns:xlink="http://www.w3.org/1999/xlink" x="0px" y="0px"
	 viewBox="0 0 285 478" style="enable-background:new 0 0 285 478;" xml:space="preserve">
<style type="text/css">
	.st0{fill:#D32E2D;}
	.st1{fill:#FFFFFF;}
</style>
<g>
	<rect x="1.5" y="1.5" class="st0" width="282.1" height="397"/>
	<path class="st1" d="M282.1,3v394H3V3H282.1 M285.1,0H0v400h285.1V0L285.1,0z"/>
</g>
<g>
	<polygon class="st0" points="1.5,398.6 1.5,1.6 270.6,23.4 270.6,420.4 	"/>
	<path class="st1" d="M3,3.3l266.1,21.5v394L3,397.2V3.3 M0,0v400l272.1,22V22L0,0L0,0z"/>
</g>
<g>
	<polygon class="st0" points="1.5,398.8 1.5,1.8 249.6,54 249.6,450.9 	"/>
	<path class="st1" d="M3,3.7l245.1,51.5v393.9L3,397.6V3.7 M0,0v400l251.1,52.8v-400L0,0L0,0z"/>
</g>
<g>
	<polygon class="st0" points="1.5,399.3 1.5,2.1 222.5,78.7 222.5,475.9 	"/>
	<path class="st1" d="M3,4.2l218,75.6v394L3,398.2V4.2 M0,0v400.3L224,478V77.7L0,0L0,0z"/>
</g>
<g>
	<g>
		<path class="st1" d="M39.6,174.2l21.6,7.5v9.6l-34-11.9v-51.5l12.4,4.3L39.6,174.2L39.6,174.2z"/>
		<path class="st1" d="M100.8,183.3l-19.5-6.8v12.3l23.1,8.1v9.5L68.9,194v-51.5l35.5,12.4v9.6l-23.1-8.1v10.9l19.5,6.8V183.3z"/>
		<path class="st1" d="M144.2,199.8l-20-7v20.5l-12.4-4.3v-51.5l34.4,12v9.6l-22-7.7v11.8l20,7L144.2,199.8L144.2,199.8z"/>
		<path class="st1" d="M194.9,196.1l-15.4-5.4v41.9l-12.4-4.3v-41.9l-15.2-5.3v-9.6l43,15L194.9,196.1L194.9,196.1z"/>
	</g>
	<path class="st1" d="M39.8,125l-6.6-2.3l-1.1,3.2l-5.1-1.8l7.3-16.7l4.5,1.6l7.4,21.8L41,129L39.8,125z M34.4,119.6l4.3,1.5
		l-2.1-7.4L34.4,119.6z"/>
	<path class="st1" d="M53.4,129.8l8.4,2.9v3.6l-13.2-4.6v-19.3l4.8,1.7V129.8z"/>
	<path class="st1" d="M69.5,135.4l8.4,2.9v3.6l-13.2-4.6V118l4.8,1.7V135.4z"/>
	<path class="st1" d="M102.6,134.8l-5.9-2.1v15.7l-4.8-1.7v-15.7l-5.9-2.1v-3.6l16.6,5.8V134.8z"/>
	<path class="st1" d="M122.1,157.4l-4.7-1.7v-8l-7.1-2.5v8.1l-4.8-1.7v-19.3l4.8,1.7v7.6l7.1,2.5v-7.6l4.7,1.7V157.4z"/>
	<path class="st1" d="M137.6,159.2l-6.6-2.3l-1.1,3.2l-5.1-1.8l7.3-16.7l4.5,1.6l7.4,21.8l-5.1-1.8L137.6,159.2z M132.2,153.7
		l4.3,1.5l-2.1-7.4L132.2,153.7z"/>
	<path class="st1" d="M160.3,155l-5.9-2.1v15.7l-4.8-1.7v-15.7l-5.9-2.1v-3.6l16.6,5.8V155z"/>
	<path class="st1" d="M174.6,175.7l-4.7-1.7v-19.3l4.7,1.7V175.7z"/>
	<path class="st1" d="M189.2,175.6c0-0.7-0.2-1.3-0.7-1.8c-0.5-0.6-1.4-1.3-2.6-2.1c-1.2-0.8-2.3-1.6-3.1-2.3
		c-2.6-2.2-3.8-4.3-3.8-6.4c0-1.1,0.3-1.9,1-2.5s1.5-0.9,2.7-1c1.2,0,2.5,0.2,4,0.7c1.4,0.5,2.7,1.2,3.8,2.1c1.1,0.9,2,1.9,2.7,3
		c0.6,1.1,1,2.3,1,3.4l-4.7-1.7c0-0.8-0.2-1.5-0.7-2.1c-0.5-0.6-1.3-1-2.1-1.3c-0.8-0.3-1.5-0.4-2-0.1c-0.5,0.2-0.7,0.6-0.7,1.2
		c0,0.5,0.3,1.1,0.8,1.6c0.5,0.6,1.5,1.3,2.9,2.3s2.5,1.8,3.4,2.5c2.1,1.9,3.2,4,3.2,6.1c0,1.7-0.7,2.8-2,3.3s-3.1,0.4-5.4-0.4
		c-1.6-0.6-3.1-1.3-4.4-2.4c-1.3-1-2.3-2.1-2.9-3.3c-0.7-1.2-1-2.4-1-3.7l4.8,1.7c0,1,0.3,1.9,0.8,2.6c0.6,0.6,1.5,1.2,2.7,1.7
		c0.8,0.3,1.4,0.3,1.9,0.1C188.9,176.6,189.2,176.3,189.2,175.6z"/>
</g>
</svg>
