<?xml version="1.0" encoding="utf-8"?>
<!-- Generator: Adobe Illustrator 21.1.0, SVG Export Plug-In . SVG Version: 6.00 Build 0)  -->
<svg version="1.1" id="Layer_1" xmlns="http://www.w3.org/2000/svg" xmlns:xlink="http://www.w3.org/1999/xlink" x="0px" y="0px"
	 viewBox="0 0 298 133" style="enable-background:new 0 0 298 133;" xml:space="preserve" preserveAspectRatio="none">
<style type="text/css">
	.st1{fill:#181111;}
</style>
<g>
	<path class="st1" d="M23.1,116.1h38.2V133H1.1V42h21.9V116.1z"/>
	<path class="st1" d="M131.3,94.4H96.8v21.8h40.8V133H74.9V42h62.8v16.9H96.8v19.2h34.5V94.4z"/>
	<path class="st1" d="M208.1,96.8h-35.4V133h-21.9V42h60.9v16.9h-38.9v20.9h35.4V96.8z"/>
	<path class="st1" d="M297.8,58.9h-27.3V133h-21.9V58.9h-26.8V42h76.1V58.9z"/>

	<path class="st1" d="M23.5,29H11.9l-2,6.4H0.8L13.7,1.3h8l13,34.1h-9.1L23.5,29z M13.9,22.7h7.6l-3.8-11.8L13.9,22.7z"/>
	<path class="st1" d="M47.4,29.1h14.8v6.3H38.9V1.3h8.5V29.1z"/>
	<path class="st1" d="M75.9,29.1h14.8v6.3H67.4V1.3h8.5V29.1z"/>
	<path class="st1" d="M134.4,7.6h-10.5v27.8h-8.5V7.6H105V1.3h29.4V7.6z"/>
	<path class="st1" d="M169,35.4h-8.4V21.2h-12.5v14.3h-8.5V1.3h8.5v13.5h12.5V1.3h8.4V35.4z"/>
	<path class="st1" d="M196.4,29h-11.6l-2,6.4h-9.1l12.9-34.1h8l13,34.1h-9.1L196.4,29z M186.9,22.7h7.6l-3.8-11.8L186.9,22.7z"/>
	<path class="st1" d="M236.6,7.6h-10.5v27.8h-8.5V7.6h-10.4V1.3h29.4V7.6z"/>
	<path class="st1" d="M261.8,35.4h-8.4V1.3h8.4V35.4z"/>
	<path class="st1" d="M287.6,26.3c0-1.2-0.4-2.1-1.3-2.8c-0.9-0.7-2.4-1.4-4.6-2.1c-2.2-0.7-4-1.4-5.4-2.1c-4.6-2.2-6.8-5.2-6.8-9
		c0-1.9,0.6-3.6,1.7-5c1.1-1.4,2.7-2.6,4.8-3.4s4.4-1.2,7-1.2c2.5,0,4.8,0.4,6.8,1.3c2,0.9,3.6,2.1,4.7,3.7s1.7,3.5,1.7,5.5h-8.4
		c0-1.4-0.4-2.5-1.3-3.2S284.2,7,282.7,7c-1.5,0-2.7,0.3-3.6,1s-1.3,1.5-1.3,2.5c0,0.9,0.5,1.7,1.4,2.4s2.7,1.4,5.1,2.2
		s4.4,1.6,6,2.4c3.8,2.1,5.7,5.1,5.7,8.8c0,3-1.2,5.3-3.5,7s-5.5,2.6-9.5,2.6c-2.8,0-5.4-0.5-7.7-1.5c-2.3-1-4-2.4-5.2-4.1
		s-1.8-3.7-1.8-6h8.5c0,1.8,0.5,3.2,1.5,4s2.6,1.3,4.7,1.3c1.4,0,2.5-0.3,3.3-0.9C287.2,28.2,287.6,27.4,287.6,26.3z"/>
</g>
</svg>
